<?xml version="1.0" encoding="UTF-8" standalone="no"?>
<!-- Created with Inkscape (http://www.inkscape.org/) -->

<svg
   xmlns:dc="http://purl.org/dc/elements/1.1/"
   xmlns:cc="http://creativecommons.org/ns#"
   xmlns:rdf="http://www.w3.org/1999/02/22-rdf-syntax-ns#"
   xmlns:svg="http://www.w3.org/2000/svg"
   xmlns="http://www.w3.org/2000/svg"
   xmlns:sodipodi="http://sodipodi.sourceforge.net/DTD/sodipodi-0.dtd"
   xmlns:inkscape="http://www.inkscape.org/namespaces/inkscape"
   width="1000"
   height="251.0462"
   viewBox="0 0 264.58333 66.422643"
   version="1.1"
   id="svg8"
   inkscape:version="0.92.4 (5da689c313, 2019-01-14)"
   sodipodi:docname="a.svg">
  <defs
     id="defs2" />
  <sodipodi:namedview
     id="base"
     pagecolor="#ffffff"
     bordercolor="#666666"
     borderopacity="1.0"
     inkscape:pageopacity="0.0"
     inkscape:pageshadow="2"
     inkscape:zoom="0.35"
     inkscape:cx="1179.2286"
     inkscape:cy="-450.85714"
     inkscape:document-units="px"
     inkscape:current-layer="layer1"
     showgrid="false"
     units="px"
     inkscape:window-width="1920"
     inkscape:window-height="1017"
     inkscape:window-x="1912"
     inkscape:window-y="-8"
     inkscape:window-maximized="1"
     fit-margin-top="0"
     fit-margin-left="0"
     fit-margin-right="0"
     fit-margin-bottom="0" />
  <metadata
     id="metadata5">
    <rdf:RDF>
      <cc:Work
         rdf:about="">
        <dc:format>image/svg+xml</dc:format>
        <dc:type
           rdf:resource="http://purl.org/dc/dcmitype/StillImage" />
        <dc:title></dc:title>
      </cc:Work>
    </rdf:RDF>
  </metadata>
  <g
     inkscape:label="Layer 1"
     inkscape:groupmode="layer"
     id="layer1"
     transform="translate(132.08756,179.7536)">
    <path
       inkscape:connector-curvature="0"
       style="fill:#ff0000;stroke-width:2.76760983"
       d="m -39.095867,-169.23665 c -1.107009,-4.15146 -4.428141,-7.19582 -8.302829,-8.30283 -7.4726,-2.21412 -37.362787,-2.21412 -37.362787,-2.21412 0,0 -29.613407,0 -36.809127,1.93735 -4.15146,1.10701 -7.19582,4.15136 -8.30283,8.30283 -2.21412,7.47249 -2.21412,22.97114 -2.21412,22.97114 0,0 0,15.49865 1.93734,22.69437 1.10701,4.15146 4.42815,7.19582 8.30283,8.30283 7.4725,2.21412 37.085907,2.21412 37.085907,2.21412 0,0 29.613514,0 37.086008,-1.93734 4.151467,-1.10701 7.195821,-4.42815 8.30283,-8.30283 1.937344,-7.4725 1.937344,-22.69437 1.937344,-22.69437 0,0 0.277197,-15.77543 -1.660566,-22.97115 z"
       id="path8538" />
    <path
       inkscape:connector-curvature="0"
       style="fill:#ffffff;stroke-width:2.76760983"
       d="m -94.171322,-132.42752 24.631711,-14.11476 -24.631711,-14.11486 z"
       id="path8540" />
    <path
       inkscape:connector-curvature="0"
       class="st2"
       d="m -20.829641,-134.08809 h 8.579608 c -0.277197,7.74938 1.107009,9.9634 4.428141,9.9634 3.0443535,0 4.428141,-1.93724 4.428141,-6.08871 0,-6.36548 -3.3211319,-9.40984 -7.749273,-13.28453 -7.195821,-6.36548 -10.240174,-9.96339 -10.240174,-18.81978 0,-8.5795 3.874689,-13.5612 13.8380844,-13.5612 9.6866173,0 13.561306,5.53515 12.1775185,17.15911 l -8.5796082,0.55335 c 0.2771969,-7.74927 -0.5533476,-10.79373 -4.1514671,-10.79373 -3.3211316,0 -4.4281406,2.21412 -4.4281406,6.08881 0,5.81193 2.490796,7.74927 7.7492725,12.73097 6.6422638,6.08871 10.2401741,9.68662 10.2401741,18.26623 0,10.79373 -4.1513626,14.94509 -13.8380845,14.94509 -10.2400691,-0.2772 -14.1147581,-5.53525 -12.4541921,-17.15922 z m 48.433191,14.9451 c -2.76768,1.38389 -6.365486,1.66056 -8.579608,1.66056 -6.088707,0 -7.195821,-3.04435 -7.195821,-10.51685 v -24.35503 H 8.5069891 v -7.19572 h 3.8746889 l 1.107009,-12.4543 h 6.642264 v 12.4543 h 6.365485 v 7.19572 h -6.088707 v 22.97125 c 0,3.87458 0.553348,4.70492 1.937345,4.70492 1.383787,0 2.490796,-0.2772 3.59791,-0.55335 z m 29.613409,-40.40704 v 41.79093 h -7.4726 l -0.830544,-4.9817 h -0.277197 c -2.214018,4.15136 -5.258476,5.81193 -8.856282,5.81193 -5.535255,0 -8.026156,-3.59791 -8.026156,-11.07041 v -31.55075 h 9.409944 v 30.72042 c 0,3.59791 0.830544,5.25848 2.767575,5.25848 1.660566,0 3.321132,-1.10701 3.874688,-2.76758 v -33.21132 z m 30.997196,-17.71277 v 59.22692 h -7.195716 l -1.107114,-5.81203 h -0.277197 c -1.383787,3.87469 -4.704919,6.64226 -8.856386,6.64226 -6.642264,0 -8.856282,-4.70492 -8.856282,-18.26622 v -6.64227 c 0,-12.73097 2.767575,-18.26622 9.13306,-18.26622 3.321132,0 6.365485,1.66056 8.026051,4.42824 h 0.277197 c -0.277197,-3.59791 -0.277197,-6.08881 -0.277197,-9.13316 v -12.17752 z m -9.133061,49.26352 v -23.5247 c -0.830544,-1.38378 -2.214122,-2.21412 -3.59791,-2.21412 -3.044353,0 -3.874689,2.76768 -3.874689,11.90074 v 5.25848 c 0,9.40984 0.830545,12.17752 3.597911,12.17752 1.383787,0.27615 3.321131,-1.10712 3.874688,-3.59792 z m 13.83798,-42.34448 c 0,-4.42814 1.660566,-5.81193 4.981698,-5.81193 3.597908,0 4.981698,1.38379 4.981698,5.81193 0,4.70492 -1.66057,5.81203 -4.981698,5.81203 -3.321132,0 -4.981698,-1.10711 -4.981698,-5.81203 z m 0.553348,10.79373 h 8.856388 v 41.79093 h -8.856388 z m 13.284528,23.80138 v -6.08871 c 0,-13.56131 3.87469,-18.543 13.00775,-18.543 9.13316,0 12.73107,5.25847 12.73107,18.543 v 6.08871 c 0,13.00785 -3.32113,18.543 -13.00775,18.543 -9.68672,0 -12.73107,-5.53515 -12.73107,-18.543 z m 16.32888,3.32113 v -13.00775 c 0,-5.81193 -0.83054,-8.57961 -3.59781,-8.57961 -2.76767,0 -3.32113,3.04446 -3.32113,8.57961 v 13.00775 c 0,6.08881 0.83055,8.57961 3.32113,8.57961 2.76758,0 3.59781,-2.4908 3.59781,-8.57961 z"
       id="path8542"
       style="stroke-width:2.76760983" />
  </g>
</svg>
