<svg id="Layer_1" data-name="Layer 1" xmlns="http://www.w3.org/2000/svg" viewBox="0 0 97.55 24"><defs><style>.cls-2{fill:#fff}</style></defs><path d="M33.6 3.8a4.32 4.32 0 0 0-3-3C27.9 0 17.1 0 17.1 0S6.4 0 3.8.7a4.15 4.15 0 0 0-3 3C0 6.4 0 12 0 12a45.1 45.1 0 0 0 .7 8.2 4.32 4.32 0 0 0 3 3c2.7.8 13.4.8 13.4.8s10.7 0 13.4-.7a4.32 4.32 0 0 0 3-3 45.1 45.1 0 0 0 .7-8.2s.1-5.7-.6-8.3z" fill="red"/><path class="cls-2" d="M13.7 17.1l8.9-5.1-8.9-5.1zM40.2 16.5h3.1c-.1 2.8.4 3.6 1.6 3.6s1.6-.7 1.6-2.2c0-2.3-1.2-3.4-2.8-4.8-2.6-2.3-3.7-3.6-3.7-6.8s1.4-4.9 5-4.9 4.9 2 4.4 6.2l-3.1.2c.1-2.8-.2-3.9-1.5-3.9s-1.6.8-1.6 2.2c0 2.1.9 2.8 2.8 4.6 2.4 2.2 3.7 3.5 3.7 6.6 0 3.9-1.5 5.4-5 5.4-3.7-.1-5.1-2-4.5-6.2zM57.7 21.9a7.36 7.36 0 0 1-3.1.6c-2.2 0-2.6-1.1-2.6-3.8V9.9h-1.2V7.3h1.4l.4-4.5H55v4.5h2.3v2.6h-2.2v8.3c0 1.4.2 1.7.7 1.7a5.18 5.18 0 0 0 1.3-.2zM68.4 7.3v15.1h-2.7l-.3-1.8h-.1a3.46 3.46 0 0 1-3.2 2.1c-2 0-2.9-1.3-2.9-4V7.3h3.4v11.1c0 1.3.3 1.9 1 1.9a1.51 1.51 0 0 0 1.4-1v-12zM79.6.9v21.4H77l-.4-2.1h-.1a3.42 3.42 0 0 1-3.2 2.4c-2.4 0-3.2-1.7-3.2-6.6v-2.4c0-4.6 1-6.6 3.3-6.6a3.36 3.36 0 0 1 2.9 1.6h.1c-.1-1.3-.1-2.2-.1-3.3V.9zm-3.3 17.8v-8.5a1.56 1.56 0 0 0-1.3-.8c-1.1 0-1.4 1-1.4 4.3v1.9c0 3.4.3 4.4 1.3 4.4.5.1 1.2-.4 1.4-1.3zM81.3 3.4c0-1.6.6-2.1 1.8-2.1s1.8.5 1.8 2.1-.6 2.1-1.8 2.1-1.8-.4-1.8-2.1zm.2 3.9h3.2v15.1h-3.2zM86.3 15.9v-2.2C86.3 8.8 87.7 7 91 7s4.6 1.9 4.6 6.7v2.2c0 4.7-1.2 6.7-4.7 6.7s-4.6-2-4.6-6.7zm5.9 1.2v-4.7c0-2.1-.3-3.1-1.3-3.1s-1.2 1.1-1.2 3.1v4.7c0 2.2.3 3.1 1.2 3.1s1.3-.9 1.3-3.1z"/></svg>