<!DOCTYPE svg PUBLIC "-//W3C//DTD SVG 1.1//EN" "http://www.w3.org/Graphics/SVG/1.1/DTD/svg11.dtd">
<!-- Uploaded to: SVG Repo, www.svgrepo.com, Transformed by: SVG Repo Mixer Tools -->
<svg fill="#000000" width="64px" height="64px" viewBox="0 0 512 512" data-name="Layer 1" id="Layer_1" xmlns="http://www.w3.org/2000/svg">
<g id="SVGRepo_bgCarrier" stroke-width="0"/>
<g id="SVGRepo_tracerCarrier" stroke-linecap="round" stroke-linejoin="round"/>
<g id="SVGRepo_iconCarrier">
<path d="M478,256A222,222,0,0,1,99,413,220.55,220.55,0,0,1,34,256H63.92c0,105.91,86.17,192.08,192.08,192.08S448.08,361.91,448.08,256,361.91,63.92,256,63.92A191.8,191.8,0,0,0,116.58,124H175v29.92H70V49H99.93v49.3A221.93,221.93,0,0,1,478,256ZM250,139V280H373V250H280V139Z"/>
</g>
</svg>