<!DOCTYPE svg PUBLIC "-//W3C//DTD SVG 1.1//EN" "http://www.w3.org/Graphics/SVG/1.1/DTD/svg11.dtd">
<!-- Uploaded to: SVG Repo, www.svgrepo.com, Transformed by: SVG Repo Mixer Tools -->
<svg fill="#000000" width="64px" height="64px" viewBox="0 0 32 32" version="1.1" xmlns="http://www.w3.org/2000/svg">
<g id="SVGRepo_bgCarrier" stroke-width="0"/>
<g id="SVGRepo_tracerCarrier" stroke-linecap="round" stroke-linejoin="round"/>
<g id="SVGRepo_iconCarrier"> <title>bell-slash</title> <path d="M21 25.25h-16.306c1.893-2.205 3.048-5.092 3.056-8.248v-0.002c-0-0.033-0-0.071-0-0.11 0-1.317 0.149-2.6 0.43-3.832l-0.022 0.115c0.012-0.050 0.019-0.108 0.019-0.168 0-0.414-0.336-0.751-0.75-0.751-0.355 0-0.652 0.246-0.73 0.577l-0.001 0.005c-0.283 1.219-0.445 2.618-0.445 4.055 0 0.038 0 0.076 0 0.114l-0-0.006c-0.046 3.349-1.489 6.353-3.771 8.462l-0.008 0.007c-0.137 0.136-0.221 0.324-0.221 0.532 0 0.414 0.336 0.75 0.75 0.75 0 0 0.001 0 0.001 0h8.326c0.366 2.28 2.319 4 4.674 4s4.308-1.72 4.671-3.973l0.004-0.027h0.326c0.414 0 0.75-0.336 0.75-0.75s-0.336-0.75-0.75-0.75v0zM16 29.25c-1.526-0.004-2.804-1.058-3.149-2.478l-0.005-0.022h6.308c-0.35 1.442-1.628 2.496-3.154 2.5h-0zM30.531 29.469l-2.719-2.719h1.188c0 0 0 0 0.001 0 0.414 0 0.75-0.336 0.75-0.75 0-0.207-0.084-0.394-0.219-0.53v0c-2.306-2.105-3.755-5.116-3.781-8.466l-0-0.005c0-7.527-3.799-11.341-7.354-12.399-0.478-0.144-1.038-0.252-1.615-0.301l-0.031-0.002v-2.297c0-0.414-0.336-0.75-0.75-0.75s-0.75 0.336-0.75 0.75v0 2.3c-2.588 0.281-4.817 1.625-6.269 3.58l-0.017 0.024-6.434-6.434c-0.135-0.131-0.32-0.212-0.523-0.212-0.414 0-0.75 0.336-0.75 0.75 0 0.203 0.081 0.388 0.213 0.523l27.999 28.001c0.136 0.136 0.324 0.22 0.531 0.22 0.415 0 0.751-0.336 0.751-0.751 0-0.207-0.084-0.395-0.22-0.531v0zM17.968 6.038c3.036 0.904 6.282 4.259 6.282 10.951-0 0.021-0 0.047-0 0.072 0 3.139 1.158 6.009 3.070 8.204l-0.013-0.015h-0.994l-16.281-16.28c1.319-1.939 3.515-3.195 6.004-3.195 0.688 0 1.353 0.096 1.984 0.275l-0.051-0.012z"/> </g>
</svg>